<?xml version="1.0" encoding="utf-8"?>
<svg xmlns="http://www.w3.org/2000/svg"
	xmlns:xlink="http://www.w3.org/1999/xlink"
	width="39px" height="53px" viewBox="0 0 39 53">
<path fillRule="evenodd" d="M 35.22 53C 35.22 53 16.08 53 16.08 53 14 53 12.3 51.29 12.3 49.2 12.3 49.2 12.3 18.87 12.3 18.87 12.3 18.87 15.2 22.04 15.2 22.04 15.41 22.26 15.64 22.46 15.89 22.63 15.89 22.63 15.89 45.25 15.89 45.25 15.89 45.25 35.41 45.25 35.41 45.25 35.41 45.25 35.41 12.79 35.41 12.79 35.41 12.69 35.32 12.6 35.22 12.6 35.22 12.6 27.08 12.6 27.08 12.6 27.12 12.33 27.16 12.05 27.16 11.77 27.16 11.77 27.16 9 27.16 9 27.16 9 35.22 9 35.22 9 37.31 9 39 10.7 39 12.79 39 12.79 39 49.2 39 49.2 39 51.29 37.31 53 35.22 53ZM 25.65 47C 24.5 47 23.57 47.94 23.57 49.1 23.57 50.25 24.5 51.19 25.65 51.19 26.8 51.19 27.74 50.25 27.74 49.1 27.74 47.94 26.8 47 25.65 47ZM 21.49 13.86C 21.49 13.86 18.52 13.86 18.52 13.86 18.52 13.86 18.52 19.33 18.52 19.33 18.52 19.49 18.42 19.64 18.27 19.69 18.22 19.71 18.18 19.72 18.13 19.72 18.02 19.72 17.92 19.68 17.84 19.6 17.84 19.6 12.59 13.86 12.59 13.86 12.59 13.86 2.08 13.86 2.08 13.86 0.93 13.86-0 12.92-0 11.77-0 11.77-0 2.09-0 2.09-0 0.93 0.93-0 2.08-0 2.08-0 21.49-0 21.49-0 22.63-0 23.57 0.93 23.57 2.09 23.57 2.09 23.57 11.77 23.57 11.77 23.57 12.92 22.63 13.86 21.49 13.86ZM 8.98 4.43C 8.98 4.43 4.16 4.43 4.16 4.43 3.74 4.43 3.4 4.77 3.4 5.19 3.4 5.61 3.74 5.95 4.16 5.95 4.16 5.95 8.98 5.95 8.98 5.95 9.4 5.95 9.74 5.61 9.74 5.19 9.74 4.77 9.4 4.43 8.98 4.43ZM 13.72 7.78C 13.72 7.78 4.16 7.78 4.16 7.78 3.74 7.78 3.4 8.12 3.4 8.54 3.4 8.96 3.74 9.3 4.16 9.3 4.16 9.3 13.72 9.3 13.72 9.3 14.14 9.3 14.48 8.96 14.48 8.54 14.48 8.12 14.14 7.78 13.72 7.78Z" fill="rgb(50,179,166)"/></svg>