<?xml version="1.0" encoding="utf-8"?>
<svg xmlns="http://www.w3.org/2000/svg"
	xmlns:xlink="http://www.w3.org/1999/xlink"
	width="42px" height="46px" viewBox="0 0 42 46">
<path fillRule="evenodd" d="M 40.77 22.59C 40.77 22.59 35.68 22.59 35.68 22.59 35 22.59 34.45 22.04 34.45 21.37 34.45 20.69 35 20.15 35.68 20.15 35.68 20.15 40.77 20.15 40.77 20.15 41.45 20.15 42 20.69 42 21.37 42 22.04 41.45 22.59 40.77 22.59ZM 39.8 12.5C 39.8 12.5 35.36 14.93 35.36 14.93 35.17 15.04 34.96 15.09 34.76 15.09 34.33 15.09 33.9 14.86 33.68 14.46 33.35 13.87 33.56 13.13 34.16 12.8 34.16 12.8 38.61 10.37 38.61 10.37 39.2 10.04 39.95 10.25 40.28 10.84 40.61 11.43 40.4 12.17 39.8 12.5ZM 31.24 8.96C 31.01 9.34 30.6 9.54 30.19 9.54 29.97 9.54 29.75 9.49 29.55 9.37 28.96 9.02 28.78 8.27 29.13 7.69 29.13 7.69 31.78 3.4 31.78 3.4 32.13 2.83 32.89 2.65 33.48 3 34.06 3.35 34.24 4.1 33.89 4.67 33.89 4.67 31.24 8.96 31.24 8.96ZM 21.49 7.45C 20.81 7.45 20.26 6.91 20.26 6.24 20.26 6.24 20.26 1.22 20.26 1.22 20.26 0.54 20.81-0 21.49-0 22.17-0 22.73 0.54 22.73 1.22 22.73 1.22 22.73 6.24 22.73 6.24 22.73 6.91 22.17 7.45 21.49 7.45ZM 13.96 9.42C 13.76 9.54 13.54 9.6 13.32 9.6 12.9 9.6 12.5 9.39 12.27 9.01 12.27 9.01 9.62 4.72 9.62 4.72 9.27 4.15 9.45 3.4 10.03 3.05 10.62 2.7 11.37 2.88 11.73 3.46 11.73 3.46 14.37 7.74 14.37 7.74 14.73 8.32 14.54 9.07 13.96 9.42ZM 21.2 8.96C 27.83 8.96 33.21 14.07 33.21 20.36 33.21 20.83 33.18 21.28 33.12 21.73 33.12 21.73 33.21 21.73 33.21 21.73 33.21 21.73 33.21 35.11 33.21 35.11 33.21 35.11 9.19 35.11 9.19 35.11 9.19 35.11 9.19 21.73 9.19 21.73 9.19 21.73 9.28 21.73 9.28 21.73 9.22 21.28 9.19 20.83 9.19 20.36 9.19 14.07 14.57 8.96 21.2 8.96ZM 28.42 31.63C 28.42 32.3 28.97 32.84 29.65 32.84 30.34 32.84 30.89 32.3 30.89 31.63 30.89 31.63 30.89 20.73 30.89 20.73 30.89 20.06 30.34 19.51 29.65 19.51 28.97 19.51 28.42 20.06 28.42 20.73 28.42 20.73 28.42 31.63 28.42 31.63ZM 7.88 15.43C 7.67 15.43 7.47 15.38 7.28 15.27 7.28 15.27 2.83 12.84 2.83 12.84 2.24 12.51 2.02 11.77 2.35 11.18 2.68 10.59 3.44 10.38 4.03 10.71 4.03 10.71 8.48 13.14 8.48 13.14 9.07 13.47 9.29 14.21 8.96 14.8 8.73 15.2 8.31 15.43 7.88 15.43ZM 7.55 21.73C 7.55 22.41 7 22.95 6.32 22.95 6.32 22.95 1.23 22.95 1.23 22.95 0.55 22.95-0 22.41-0 21.73-0 21.06 0.55 20.51 1.23 20.51 1.23 20.51 6.32 20.51 6.32 20.51 7 20.51 7.55 21.06 7.55 21.73ZM 4.57 41.26C 4.57 41.26 5.33 41.26 5.33 41.26 5.09 40.89 4.95 40.45 4.95 39.98 4.95 38.67 6.02 37.61 7.34 37.61 7.34 37.61 35.06 37.61 35.06 37.61 36.38 37.61 37.46 38.67 37.46 39.98 37.46 40.45 37.31 40.89 37.07 41.26 37.07 41.26 37.83 41.26 37.83 41.26 39.15 41.26 40.23 42.32 40.23 43.63 40.23 44.94 39.15 46 37.83 46 37.83 46 4.57 46 4.57 46 3.25 46 2.17 44.94 2.17 43.63 2.17 42.32 3.25 41.26 4.57 41.26Z" fill="rgb(49,179,165)"/></svg>