<?xml version="1.0" encoding="utf-8"?>
<svg xmlns="http://www.w3.org/2000/svg"
	xmlns:xlink="http://www.w3.org/1999/xlink"
	width="182px" height="163px" viewBox="0 0 182 163">
<clipPath id="clip0"><rect x="0" y="0" width="182" height="163" rx="10"/></clipPath><rect x="0" y="0" width="182" height="163" rx="10" fill="none" stroke="rgb(255,255,255)" stroke-width="4.00px" clip-path="url(#clip0)"/><path fillRule="evenodd" d="M 94.69 112.46C 94.69 112.46 94.69 116.69 94.69 116.69 94.69 116.69 107.85 116.69 107.85 116.69 108.8 116.69 109.57 117.45 109.57 118.38 109.57 118.38 109.57 121.3 109.57 121.3 109.57 122.23 108.8 122.99 107.85 122.99 107.85 122.99 75.15 122.99 75.15 122.99 74.2 122.99 73.43 122.23 73.43 121.3 73.43 121.3 73.43 118.38 73.43 118.38 73.43 117.45 74.2 116.69 75.15 116.69 75.15 116.69 88.31 116.69 88.31 116.69 88.31 116.69 88.31 112.46 88.31 112.46 75.8 110.9 65.99 99.91 65.99 87.44 65.99 87.44 65.99 81.47 65.99 81.47 65.99 80.54 66.76 79.78 67.71 79.78 67.71 79.78 70.65 79.78 70.65 79.78 71.6 79.78 72.37 80.54 72.37 81.47 72.37 81.47 72.37 87.44 72.37 87.44 72.37 97.87 80.95 106.36 91.5 106.36 102.05 106.36 110.63 97.87 110.63 87.44 110.63 87.44 110.63 81.47 110.63 81.47 110.63 80.54 111.4 79.78 112.34 79.78 112.34 79.78 115.29 79.78 115.29 79.78 116.24 79.78 117.01 80.54 117.01 81.47 117.01 81.47 117.01 87.44 117.01 87.44 117.01 99.91 107.2 110.91 94.69 112.46ZM 91.5 103.17C 83.34 103.17 76.7 96.6 76.7 88.53 76.7 88.53 76.7 55.64 76.7 55.64 76.7 47.57 83.34 41 91.5 41 99.66 41 106.3 47.57 106.3 55.64 106.3 55.64 106.3 88.53 106.3 88.53 106.3 96.6 99.66 103.17 91.5 103.17Z" fill="rgb(255,255,255)"/></svg>