<?xml version="1.0" encoding="utf-8"?>
<svg xmlns="http://www.w3.org/2000/svg"
	xmlns:xlink="http://www.w3.org/1999/xlink"
	width="49px" height="32px" viewBox="0 0 49 32">
<path fillRule="evenodd" d="M 48.9 16.44C 44.62 25.63 35.3 32 24.49 32 13.67 32 4.35 25.63 0.07 16.44-0.06 16.16-0.06 15.83 0.07 15.55 4.35 6.36 13.67-0 24.49-0 35.3-0 44.62 6.36 48.9 15.55 49.03 15.84 49.03 16.16 48.9 16.44ZM 24.49 4.96C 18.39 4.96 13.44 9.9 13.44 16 13.44 22.09 18.38 27.04 24.49 27.04 30.59 27.04 35.54 22.09 35.54 16 35.54 9.9 30.59 4.96 24.49 4.96ZM 24.49 23.06C 20.58 23.06 17.41 19.9 17.41 15.99 17.41 12.09 20.58 8.93 24.49 8.93 28.39 8.93 31.56 12.09 31.56 15.99 31.56 19.9 28.39 23.06 24.49 23.06Z" fill="rgb(50,179,166)"/></svg>