<?xml version="1.0" encoding="utf-8"?>
<svg xmlns="http://www.w3.org/2000/svg"
	xmlns:xlink="http://www.w3.org/1999/xlink"
	width="182px" height="163px" viewBox="0 0 182 163">
<clipPath id="clip0"><rect x="0" y="0" width="182" height="163" rx="10"/></clipPath><rect x="0" y="0" width="182" height="163" rx="10" fill="none" stroke="rgb(255,255,255)" stroke-width="4.00px" clip-path="url(#clip0)"/><path fillRule="evenodd" d="M 107.34 43.99C 107.34 43.99 74.66 43.99 74.66 43.99 71.53 43.99 69.01 46.54 69.01 49.68 69.01 49.68 69.01 116.33 69.01 116.33 69.01 119.46 71.53 122 74.66 122 74.66 122 107.34 122 107.34 122 110.46 122 112.99 119.46 112.99 116.33 112.99 116.33 112.99 49.68 112.99 49.68 112.99 46.54 110.46 43.99 107.34 43.99ZM 82.94 47.44C 82.94 47.44 99.07 47.44 99.07 47.44 99.48 47.44 99.81 48.05 99.81 48.81 99.81 49.57 99.48 50.18 99.07 50.18 99.07 50.18 82.94 50.18 82.94 50.18 82.53 50.18 82.2 49.57 82.2 48.81 82.2 48.05 82.53 47.44 82.94 47.44ZM 91 116.39C 89.01 116.39 87.39 114.77 87.39 112.77 87.39 110.77 89.01 109.15 91 109.15 92.99 109.15 94.6 110.77 94.6 112.77 94.6 114.77 92.99 116.39 91 116.39ZM 108.76 103.97C 108.76 103.97 73.25 103.97 73.25 103.97 73.25 103.97 73.25 53.58 73.25 53.58 73.25 53.58 108.76 53.58 108.76 53.58 108.76 53.58 108.76 103.97 108.76 103.97Z" fill="rgb(255,255,255)"/></svg>