<?xml version="1.0" encoding="utf-8"?>
<svg xmlns="http://www.w3.org/2000/svg"
	xmlns:xlink="http://www.w3.org/1999/xlink"
	width="182px" height="163px" viewBox="0 0 182 163">
<clipPath id="clip0"><rect x="0" y="0" width="182" height="163" rx="10"/></clipPath><rect x="0" y="0" width="182" height="163" rx="10" fill="none" stroke="rgb(255,255,255)" stroke-width="4.00px" clip-path="url(#clip0)"/><path fillRule="evenodd" d="M 116.29 71.68C 115.61 55.72 103.67 43.02 89 43.02 74.33 43.02 62.4 55.72 61.71 71.68 59.56 72.25 57.98 74.17 57.98 76.48 57.98 76.48 57.98 88.9 57.98 88.9 57.98 91.66 60.22 93.89 62.99 93.89 65.76 93.89 68.01 91.66 68.01 88.9 68.01 88.9 68.01 88.9 68.01 88.9 68.01 88.9 68.01 87.94 68.01 87.94 70.38 98.93 76.12 113.16 89 113.16 101.88 113.16 107.62 98.94 110 87.95 110 87.95 110 88.9 110 88.9 110 91.1 111.43 92.94 113.41 93.61 113.27 96.13 111.91 109.42 98.87 114.96 98.05 114.46 97.06 114.29 96.08 114.64 96.08 114.64 90.34 116.76 90.34 116.76 88.68 117.38 87.83 119.23 88.44 120.88 89.06 122.54 90.91 123.39 92.58 122.78 92.58 122.78 98.31 120.66 98.31 120.66 99.57 120.21 100.36 119.05 100.41 117.81 115.02 111.38 116.52 96.02 116.66 93.59 118.61 92.91 120.02 91.08 120.02 88.9 120.02 88.9 120.02 76.48 120.02 76.48 120.02 74.18 118.43 72.25 116.29 71.68ZM 89 52.49C 77.6 52.49 68.2 61.51 66.74 73.19 66.35 72.75 65.89 72.39 65.37 72.11 65.85 58.19 76.23 47.07 89 47.07 101.77 47.07 112.15 58.19 112.63 72.11 112.12 72.39 111.66 72.75 111.27 73.19 109.8 61.51 100.41 52.49 89 52.49Z" fill="rgb(255,255,255)"/></svg>