<?xml version="1.0" encoding="utf-8"?>
<svg xmlns="http://www.w3.org/2000/svg"
	xmlns:xlink="http://www.w3.org/1999/xlink"
	width="47px" height="43px" viewBox="0 0 47 43">
<path fillRule="evenodd" d="M 46.78 42.71C 46.62 42.9 46.39 43 46.14 43 46.14 43 25.79 43 25.79 43 25.28 43 24.85 42.59 24.82 42.08 24.82 42.08 24.71 39.89 24.71 39.89 24.7 39.64 24.78 39.4 24.95 39.22 25.12 39.05 25.35 38.95 25.6 38.95 25.6 38.95 45.78 38.95 45.78 38.95 46.27 38.95 46.72 39.35 46.77 39.85 46.77 39.85 47 42.04 47 42.04 47.02 42.29 46.95 42.53 46.78 42.71ZM 45.53 37.14C 45.53 37.14 25.48 37.14 25.48 37.14 24.98 37.14 24.55 36.73 24.52 36.22 24.52 36.22 23.91 24.5 23.91 24.5 23.9 24.29 23.71 24.11 23.5 24.11 23.5 24.11 23.42 24.11 23.42 24.11 23.2 24.12 23.01 24.3 23 24.52 23 24.52 22.45 36.22 22.45 36.22 22.42 36.73 21.99 37.14 21.49 37.14 21.49 37.14 1.47 37.14 1.47 37.14 1.21 37.14 0.98 37.04 0.82 36.86 0.66 36.67 0.58 36.44 0.61 36.18 0.61 36.18 3.07 12.25 3.07 12.25 3.11 11.86 3.27 11.27 3.43 10.91 3.43 10.91 5.17 7.04 5.17 7.04 4.8 6.82 4.55 6.41 4.55 5.96 4.55 5.96 4.55 1.25 4.55 1.25 4.55 0.56 5.12-0 5.81-0 5.81-0 41.19-0 41.19-0 41.88-0 42.45 0.56 42.45 1.25 42.45 1.25 42.45 5.96 42.45 5.96 42.45 6.4 42.21 6.8 41.86 7.02 41.86 7.02 43.57 10.91 43.57 10.91 43.73 11.27 43.89 11.86 43.93 12.25 43.93 12.25 46.39 36.18 46.39 36.18 46.42 36.44 46.34 36.67 46.18 36.86 46.02 37.04 45.79 37.14 45.53 37.14ZM 27.92 2.87C 27.92 1.88 27.12 1.07 26.12 1.07 26.12 1.07 20.88 1.07 20.88 1.07 19.88 1.07 19.08 1.88 19.08 2.87 19.08 2.87 19.08 4.52 19.08 4.52 19.08 5.52 19.88 6.33 20.88 6.33 20.88 6.33 26.12 6.33 26.12 6.33 27.12 6.33 27.92 5.52 27.92 4.52 27.92 4.52 27.92 2.87 27.92 2.87ZM 26.12 4.69C 26.12 4.69 20.88 4.69 20.88 4.69 20.79 4.69 20.71 4.61 20.71 4.52 20.71 4.52 20.71 2.87 20.71 2.87 20.71 2.79 20.79 2.71 20.88 2.71 20.88 2.71 26.12 2.71 26.12 2.71 26.21 2.71 26.29 2.79 26.29 2.87 26.29 2.87 26.29 4.52 26.29 4.52 26.29 4.61 26.21 4.69 26.12 4.69ZM 21.38 38.95C 21.63 38.95 21.86 39.05 22.03 39.22 22.2 39.4 22.29 39.64 22.28 39.89 22.28 39.89 22.17 42.08 22.17 42.08 22.15 42.58 21.72 43 21.21 43 21.21 43 0.86 43 0.86 43 0.61 43 0.38 42.9 0.22 42.71 0.05 42.53-0.02 42.29 0 42.04 0 42.04 0.23 39.85 0.23 39.85 0.28 39.35 0.73 38.95 1.22 38.95 1.22 38.95 21.38 38.95 21.38 38.95Z" fill="rgb(49,179,165)"/></svg>