<?xml version="1.0" encoding="utf-8"?>
<svg xmlns="http://www.w3.org/2000/svg"
	xmlns:xlink="http://www.w3.org/1999/xlink"
	width="182px" height="163px" viewBox="0 0 182 163">
<clipPath id="clip0"><rect x="0" y="0" width="182" height="163" rx="10"/></clipPath><rect x="0" y="0" width="182" height="163" rx="10" fill="none" stroke="rgb(255,255,255)" stroke-width="4.00px" clip-path="url(#clip0)"/><path fillRule="evenodd" d="M 105.58 119.91C 105.58 119.91 77.01 119.91 77.01 119.91 73.9 119.91 71.37 117.54 71.37 114.62 71.37 114.62 71.37 72.32 71.37 72.32 71.37 72.32 75.69 76.73 75.69 76.73 76 77.05 76.35 77.32 76.73 77.56 76.73 77.56 76.73 109.11 76.73 109.11 76.73 109.11 105.86 109.11 105.86 109.11 105.86 109.11 105.86 63.84 105.86 63.84 105.86 63.69 105.74 63.58 105.58 63.58 105.58 63.58 93.43 63.58 93.43 63.58 93.49 63.19 93.54 62.81 93.54 62.41 93.54 62.41 93.54 58.55 93.54 58.55 93.54 58.55 105.58 58.55 105.58 58.55 108.69 58.55 111.22 60.92 111.22 63.84 111.22 63.84 111.22 114.62 111.22 114.62 111.22 117.54 108.69 119.91 105.58 119.91ZM 91.29 111.56C 89.58 111.56 88.18 112.86 88.18 114.48 88.18 116.09 89.58 117.4 91.29 117.4 93.02 117.4 94.41 116.09 94.41 114.48 94.41 112.86 93.02 111.56 91.29 111.56ZM 85.08 65.33C 85.08 65.33 80.64 65.33 80.64 65.33 80.64 65.33 80.64 72.96 80.64 72.96 80.64 73.19 80.5 73.39 80.27 73.47 80.21 73.5 80.13 73.51 80.06 73.51 79.9 73.51 79.75 73.45 79.64 73.33 79.64 73.33 71.8 65.33 71.8 65.33 71.8 65.33 56.1 65.33 56.1 65.33 54.39 65.33 53 64.02 53 62.41 53 62.41 53 48.91 53 48.91 53 47.3 54.39 46 56.1 46 56.1 46 85.08 46 85.08 46 86.79 46 88.18 47.3 88.18 48.91 88.18 48.91 88.18 62.41 88.18 62.41 88.18 64.02 86.79 65.33 85.08 65.33ZM 66.41 52.18C 66.41 52.18 59.21 52.18 59.21 52.18 58.59 52.18 58.08 52.65 58.08 53.24 58.08 53.83 58.59 54.3 59.21 54.3 59.21 54.3 66.41 54.3 66.41 54.3 67.03 54.3 67.54 53.83 67.54 53.24 67.54 52.65 67.03 52.18 66.41 52.18ZM 73.48 56.85C 73.48 56.85 59.21 56.85 59.21 56.85 58.59 56.85 58.08 57.32 58.08 57.91 58.08 58.5 58.59 58.97 59.21 58.97 59.21 58.97 73.48 58.97 73.48 58.97 74.1 58.97 74.61 58.5 74.61 57.91 74.61 57.32 74.1 56.85 73.48 56.85Z" fill="rgb(255,255,255)"/></svg>