<?xml version="1.0" encoding="utf-8"?>
<svg xmlns="http://www.w3.org/2000/svg"
	xmlns:xlink="http://www.w3.org/1999/xlink"
	width="182px" height="163px" viewBox="0 0 182 163">
<clipPath id="clip0"><rect x="0" y="0" width="182" height="163" rx="10"/></clipPath><rect x="0" y="0" width="182" height="163" rx="10" fill="none" stroke="rgb(255,255,255)" stroke-width="4.00px" clip-path="url(#clip0)"/><path fillRule="evenodd" d="M 93.51 44.03C 79.98 44.03 69.02 54.8 69.02 68.08 69.02 91.05 93.51 121 93.51 121 93.51 121 118.01 91.05 118.01 68.08 118.01 54.8 107.04 44.03 93.51 44.03ZM 93.51 81.36C 86.21 81.36 80.29 75.54 80.29 68.37 80.29 61.19 86.21 55.38 93.51 55.38 100.82 55.38 106.74 61.19 106.74 68.37 106.74 75.54 100.82 81.36 93.51 81.36Z" fill="rgb(255,255,255)"/></svg>