<?xml version="1.0" encoding="utf-8"?>
<svg xmlns="http://www.w3.org/2000/svg"
	xmlns:xlink="http://www.w3.org/1999/xlink"
	width="30px" height="48px" viewBox="0 0 30 48">
<path fillRule="evenodd" d="M 16.87 41.83C 16.87 41.83 16.87 44.3 16.87 44.3 16.87 44.3 24.62 44.3 24.62 44.3 25.18 44.3 25.63 44.75 25.63 45.3 25.63 45.3 25.63 47 25.63 47 25.63 47.55 25.18 48 24.62 48 24.62 48 5.38 48 5.38 48 4.82 48 4.37 47.55 4.37 47 4.37 47 4.37 45.3 4.37 45.3 4.37 44.75 4.82 44.3 5.38 44.3 5.38 44.3 13.12 44.3 13.12 44.3 13.12 44.3 13.12 41.83 13.12 41.83 5.76 40.92-0.01 34.48-0.01 27.18-0.01 27.18-0.01 23.69-0.01 23.69-0.01 23.14 0.45 22.7 1 22.7 1 22.7 2.74 22.7 2.74 22.7 3.29 22.7 3.75 23.14 3.75 23.69 3.75 23.69 3.75 27.18 3.75 27.18 3.75 33.29 8.79 38.26 15 38.26 21.2 38.26 26.25 33.29 26.25 27.18 26.25 27.18 26.25 23.69 26.25 23.69 26.25 23.14 26.7 22.7 27.26 22.7 27.26 22.7 28.99 22.7 28.99 22.7 29.55 22.7 30 23.14 30 23.69 30 23.69 30 27.18 30 27.18 30 34.48 24.24 40.92 16.87 41.83ZM 15 36.39C 10.2 36.39 6.29 32.55 6.29 27.82 6.29 27.82 6.29 8.57 6.29 8.57 6.29 3.84 10.2-0 15-0 19.8-0 23.71 3.84 23.71 8.57 23.71 8.57 23.71 27.82 23.71 27.82 23.71 32.55 19.8 36.39 15 36.39Z" fill="rgb(49,179,165)"/></svg>