<?xml version="1.0" encoding="utf-8"?>
<svg xmlns="http://www.w3.org/2000/svg"
	xmlns:xlink="http://www.w3.org/1999/xlink"
	width="42px" height="42px" viewBox="0 0 42 42">
<path fillRule="evenodd" d="M 40.82 40.82C 39.28 42.35 36.79 42.35 35.25 40.82 35.25 40.82 25.63 31.19 25.63 31.19 27.86 29.75 29.75 27.85 31.19 25.62 31.19 25.62 40.82 35.25 40.82 35.25 42.36 36.79 42.36 39.28 40.82 40.82ZM 15.74 31.48C 7.05 31.48-0 24.43-0 15.74-0 7.04 7.05-0 15.74-0 24.43-0 31.48 7.04 31.48 15.74 31.48 24.43 24.43 31.48 15.74 31.48ZM 15.74 3.93C 9.23 3.93 3.93 9.23 3.93 15.74 3.93 22.25 9.23 27.54 15.74 27.54 22.25 27.54 27.54 22.25 27.54 15.74 27.54 9.23 22.25 3.93 15.74 3.93ZM 9.18 15.74C 9.18 15.74 6.56 15.74 6.56 15.74 6.56 10.67 10.68 6.55 15.74 6.55 15.74 6.55 15.74 9.18 15.74 9.18 12.12 9.18 9.18 12.12 9.18 15.74Z" fill="rgb(49,179,165)"/></svg>