<svg xmlns="http://www.w3.org/2000/svg" xmlns:xlink="http://www.w3.org/1999/xlink" preserveAspectRatio="xMidYMid" width="251" height="38" viewBox="0 0 251 38">
  <defs>
    <style>
      .cls-1 {
        fill: #32b4a6;
      }

      .cls-1, .cls-2 {
        fill-rule: evenodd;
      }

      .cls-2 {
        fill: #86a0ae;
      }
    </style>
  </defs>
  <g>
    <path d="M112.880,30.340 C110.487,30.340 108.774,29.076 108.774,26.315 L108.774,4.922 C108.774,2.159 110.487,0.897 112.880,0.897 C115.270,0.897 116.985,2.159 116.985,4.922 L116.985,26.315 C116.985,29.076 115.270,30.340 112.880,30.340 ZM101.520,21.301 L89.881,21.301 C90.081,23.906 91.595,25.603 94.266,25.603 C97.255,25.603 99.009,23.078 101.520,23.078 C102.955,23.078 104.071,24.460 104.071,25.762 C104.071,28.011 101.281,30.340 93.349,30.340 C86.812,30.340 81.670,26.985 81.670,19.486 C81.670,12.027 86.812,8.672 93.349,8.672 C102.516,8.672 105.307,14.908 105.307,17.986 C105.307,20.434 104.151,21.301 101.520,21.301 ZM93.747,13.408 C91.914,13.408 90.000,14.394 89.881,17.275 L97.574,17.275 C97.574,14.434 95.780,13.408 93.747,13.408 ZM66.365,37.997 C58.512,37.997 56.519,34.879 56.519,33.260 C56.519,31.603 57.635,30.261 59.509,30.261 C61.422,30.261 62.857,32.788 65.687,32.788 C69.035,32.788 70.072,31.287 70.072,28.367 L70.072,25.643 L69.992,25.643 C69.155,27.617 66.763,28.485 64.252,28.485 C60.465,28.485 55.324,25.960 55.324,18.618 C55.324,13.211 58.631,8.672 64.412,8.672 C66.803,8.672 70.032,9.777 70.709,12.381 L70.789,12.381 C70.789,10.289 72.025,8.672 74.376,8.672 C76.848,8.672 78.043,10.014 78.043,12.619 L78.043,29.235 C78.043,35.668 73.300,37.997 66.365,37.997 ZM66.962,14.355 C64.451,14.355 63.534,16.052 63.534,18.696 C63.534,21.341 64.451,23.039 66.962,23.039 C69.514,23.039 70.390,20.986 70.390,18.696 C70.390,16.407 69.514,14.355 66.962,14.355 ZM47.392,30.340 C45.001,30.340 43.287,29.076 43.287,26.315 L43.287,18.539 C43.287,16.289 42.290,15.065 40.257,15.065 C38.224,15.065 37.228,16.645 37.228,19.092 L37.228,26.315 C37.228,29.076 35.514,30.340 33.122,30.340 C30.731,30.340 29.017,29.076 29.017,26.315 L29.017,12.539 C29.017,10.014 30.252,8.672 32.963,8.672 C35.394,8.672 36.351,10.053 36.630,12.501 L36.710,12.501 C38.065,10.053 40.337,8.672 43.485,8.672 C49.186,8.672 51.497,12.145 51.497,16.645 L51.497,26.315 C51.497,29.076 49.783,30.340 47.392,30.340 ZM22.521,30.340 L15.160,30.340 C15.332,29.339 15.583,28.350 15.945,27.494 C18.655,21.094 21.427,17.479 21.427,17.479 C9.397,25.976 5.233,15.916 5.233,15.916 C5.233,15.916 7.033,21.911 7.091,27.518 C7.100,28.372 7.066,29.347 7.008,30.340 L4.184,30.340 C2.113,30.340 -0.000,28.801 -0.000,26.669 C-0.000,25.367 0.757,23.275 1.434,21.380 L7.533,4.566 C8.403,2.215 10.919,0.917 13.218,0.898 C15.520,0.917 18.301,2.215 19.172,4.566 L25.271,21.380 C25.948,23.275 26.705,25.367 26.705,26.669 C26.705,28.801 24.593,30.340 22.521,30.340 ZM12.796,11.545 C10.756,11.545 9.103,13.183 9.103,15.203 C9.103,17.223 10.756,18.860 12.796,18.860 C14.836,18.860 16.489,17.223 16.489,15.203 C16.489,13.183 14.836,11.545 12.796,11.545 Z" class="cls-1"/>
    <path d="M247.213,20.578 L235.572,20.578 C235.771,23.185 237.286,24.883 239.957,24.883 C242.947,24.883 244.701,22.356 247.213,22.356 C248.648,22.356 249.763,23.738 249.763,25.042 C249.763,27.293 246.973,29.624 239.040,29.624 C232.503,29.624 227.360,26.265 227.360,18.762 C227.360,11.296 232.503,7.938 239.040,7.938 C248.209,7.938 251.000,14.180 251.000,17.260 C251.000,19.709 249.844,20.578 247.213,20.578 ZM239.439,12.678 C237.605,12.678 235.692,13.667 235.572,16.550 L243.266,16.550 C243.266,13.705 241.472,12.678 239.439,12.678 ZM213.847,15.562 L217.315,16.313 C221.819,17.299 224.610,19.156 224.610,22.474 C224.610,26.068 221.899,29.624 213.289,29.624 C207.986,29.624 203.283,28.044 203.283,24.607 C203.283,23.265 204.598,22.119 206.193,22.119 C208.504,22.119 209.621,25.120 213.568,25.120 C215.321,25.120 216.158,24.291 216.158,23.501 C216.158,22.790 215.760,22.079 213.487,21.605 L211.056,21.092 C205.077,19.828 203.322,17.695 203.322,14.653 C203.322,11.494 205.635,7.938 213.847,7.938 C218.710,7.938 223.772,9.281 223.772,12.441 C223.772,13.864 222.657,14.969 221.062,14.969 C218.351,14.969 217.514,12.441 213.607,12.441 C212.132,12.441 211.295,12.954 211.295,13.903 C211.295,14.693 211.653,15.088 213.847,15.562 ZM195.988,29.624 C193.596,29.624 191.882,28.360 191.882,25.595 L191.882,17.813 C191.882,15.562 190.886,14.337 188.852,14.337 C186.818,14.337 185.822,15.917 185.822,18.367 L185.822,25.595 C185.822,28.360 184.108,29.624 181.717,29.624 C179.325,29.624 177.611,28.360 177.611,25.595 L177.611,11.810 C177.611,9.281 178.846,7.938 181.557,7.938 C183.989,7.938 184.945,9.320 185.224,11.770 L185.305,11.770 C186.659,9.320 188.932,7.938 192.080,7.938 C197.782,7.938 200.094,11.414 200.094,15.917 L200.094,25.595 C200.094,28.360 198.380,29.624 195.988,29.624 ZM170.475,20.578 L158.834,20.578 C159.034,23.185 160.549,24.883 163.220,24.883 C166.210,24.883 167.964,22.356 170.475,22.356 C171.910,22.356 173.027,23.738 173.027,25.042 C173.027,27.293 170.236,29.624 162.303,29.624 C155.766,29.624 150.624,26.265 150.624,18.762 C150.624,11.296 155.766,7.938 162.303,7.938 C171.472,7.938 174.263,14.180 174.263,17.260 C174.263,19.709 173.106,20.578 170.475,20.578 ZM162.702,12.678 C160.868,12.678 158.954,13.667 158.834,16.550 L166.529,16.550 C166.529,13.705 164.735,12.678 162.702,12.678 ZM138.824,11.652 C143.647,12.954 146.956,15.166 146.956,20.104 C146.956,26.858 141.096,29.781 135.036,29.781 C125.390,29.781 122.439,25.516 122.439,22.949 C122.439,20.735 124.074,19.235 126.306,19.235 C129.576,19.235 129.974,23.383 134.478,23.383 C136.352,23.383 138.026,22.751 138.026,21.013 C138.026,19.867 137.189,19.394 135.515,18.920 L129.416,17.181 C124.831,15.878 122.320,13.191 122.320,9.202 C122.320,4.462 125.509,-0.002 133.482,-0.002 C138.784,-0.002 145.640,1.264 145.640,6.042 C145.640,8.255 143.926,9.637 141.654,9.637 C138.585,9.637 138.544,6.161 133.999,6.161 C132.445,6.161 131.010,6.753 131.010,8.057 C131.010,9.320 132.127,9.872 134.080,10.388 L138.824,11.652 Z" class="cls-2"/>
  </g>
</svg>
