<?xml version="1.0" encoding="utf-8"?>
<svg xmlns="http://www.w3.org/2000/svg"
	xmlns:xlink="http://www.w3.org/1999/xlink"
	width="50px" height="63px" viewBox="0 0 50 63">
<path fillRule="evenodd" d="M 49.67 31.48C 49.6 31.6 44.03 41.5 44.03 41.5 43.96 41.62 43.9 41.97 43.9 41.97 43.9 41.97 43.89 60.11 43.88 60.25 43.72 61.68 42.41 63 40.82 63 39.13 63 37.91 61.61 37.89 60.09 37.89 60.09 37.88 52.36 37.88 52.36 37.88 52.22 37.77 52.11 37.63 52.11 37.63 52.11 37.24 52.11 37.24 52.11 37.1 52.11 36.99 52.22 36.99 52.36 36.99 52.36 36.99 60.05 36.99 60.05 36.96 61.57 35.44 63 33.76 63 32.07 63 30.74 61.56 30.71 60.04 30.71 60.04 30.71 41.68 30.71 41.68 30.71 41.54 30.65 41.32 30.58 41.2 30.58 41.2 25.01 31.64 25.01 31.64 24.85 31.39 24.72 31.1 24.65 30.8 24.22 29.4 20.81 18.4 20.81 18.4 20.79 18.35 20.68 18.15 20.43 18.15 20.4 18.15 19.92 18.15 19.92 18.15 19.92 18.15 19.91 18.15 19.91 18.15 19.77 18.14 19.69 18.27 19.72 18.4 19.72 18.4 27 42.03 27 42.03 27.04 42.17 27 42.41 26.75 42.41 26.75 42.41 21.64 42.41 21.64 42.41 21.5 42.41 21.39 42.53 21.39 42.67 21.39 42.67 21.39 59.89 21.39 59.89 21.39 61.61 19.99 63 18.26 63 16.52 63 15.12 61.61 15.12 59.89 15.12 59.89 15.12 42.67 15.12 42.67 15.12 42.53 15 42.41 14.86 42.41 14.86 42.41 14.85 42.41 14.85 42.41 14.85 42.41 14.35 42.41 14.35 42.41 14.35 42.41 14.35 42.41 14.35 42.41 14.2 42.41 14.09 42.53 14.09 42.67 14.09 42.67 14.09 59.89 14.09 59.89 14.09 61.61 12.68 63 10.95 63 9.22 63 7.81 61.61 7.81 59.89 7.81 59.89 7.81 42.67 7.81 42.67 7.81 42.53 7.71 42.41 7.56 42.41 7.56 42.41 2.46 42.41 2.46 42.41 2.21 42.41 2.17 42.17 2.21 42.03 2.21 42.03 9.48 18.4 9.48 18.4 9.52 18.27 9.44 18.14 9.29 18.15 9.29 18.15 9.29 18.15 9.29 18.15 9.29 18.15 8.8 18.15 8.78 18.15 8.52 18.15 8.42 18.35 8.39 18.4 8.39 18.4 4.76 30.16 4.76 30.16 4.36 31.43 3 32.15 1.72 31.76 0.44 31.37-0.29 30.02 0.11 28.74 0.11 28.74 3.74 16.97 3.75 16.93 4.31 15.02 5.66 10.65 9.48 10.65 9.48 10.65 19.74 10.65 19.74 10.65 23.84 10.65 24.9 15.02 25.45 16.93 25.45 16.93 28.5 26.8 29.21 29.07 29.21 29.08 29.22 29.09 29.23 29.1 29.3 29.23 32.56 34.89 32.56 34.89 32.63 35.01 32.8 35.11 32.94 35.11 32.94 35.11 41.57 35.11 41.57 35.11 41.87 35.11 42.04 35.02 42.18 34.77 42.18 34.77 45.28 29.22 45.28 29.22 45.48 28.81 45.81 28.41 46.24 28.16 47.41 27.46 48.93 27.84 49.63 29 50.11 29.79 50.09 30.74 49.67 31.48ZM 37.29 33.64C 35.39 33.64 33.86 32.11 33.86 30.23 33.86 28.92 34.6 27.78 35.69 27.21 35.69 27.21 36.76 25.43 36.76 25.43 36.76 25.43 36.76 26.86 36.76 26.86 36.89 26.84 37.02 26.83 37.16 26.82 37.16 26.82 38.01 25.43 38.01 25.43 38.01 25.43 38.01 26.89 38.01 26.89 38.11 26.91 38.21 26.94 38.31 26.97 38.31 26.97 39.24 25.43 39.24 25.43 39.24 25.43 39.24 27.42 39.24 27.42 40.14 28.04 40.73 29.06 40.73 30.23 40.73 32.11 39.19 33.64 37.29 33.64ZM 14.6 9.26C 12.03 9.26 9.94 7.19 9.94 4.63 9.94 2.07 12.03-0 14.6-0 17.18-0 19.27 2.07 19.27 4.63 19.27 7.19 17.18 9.26 14.6 9.26Z" fill="rgb(49,179,165)"/></svg>