<?xml version="1.0" encoding="utf-8"?>
<svg xmlns="http://www.w3.org/2000/svg"
	xmlns:xlink="http://www.w3.org/1999/xlink"
	width="111px" height="58px" viewBox="0 0 111 58">
<path fillRule="evenodd" d="M 17.24 34.8C 17.22 34.53 17.15 34.29 17.08 33.99 17.01 33.69 16.91 33.07 16.93 32.91 16.96 32.75 17.07 32.34 16.94 32.16 16.81 31.98 16.79 31.79 16.7 31.48 16.62 31.18 16.58 30.32 16.59 30.05 16.6 29.78 16.42 28.46 16.34 27.71 16.25 26.95 16.17 26.22 16.02 25.77 15.86 25.31 15.75 24.62 15.61 24.16 15.47 23.7 15.47 23.05 15.48 23.02 15.49 23 15.81 22.96 15.99 22.87 16.17 22.77 16.19 22.77 16.3 22.77 16.4 22.77 16.42 22.68 16.36 22.51 16.3 22.34 16.16 21.39 15.99 20.43 15.83 19.47 15.72 18.45 15.32 17.84 15.32 17.84 15.28 17.78 15.25 17.7 15.22 17.63 14.79 17.27 14.53 17.1 14.27 16.93 14.15 16.71 13.87 16.6 13.59 16.48 13.01 16.25 12.94 16.16 12.94 16.16 12.83 16.02 12.77 15.96 12.71 15.91 12.55 15.9 12.55 15.9 12.55 15.9 12.22 15.59 12.13 15.41 12.04 15.22 12.09 14.53 12.17 14.32 12.25 14.1 12.39 13.78 12.39 13.78 12.39 13.78 12.61 13.59 12.67 13.17 12.74 12.75 12.85 12.61 12.85 12.61 12.85 12.61 12.89 12.68 12.97 12.45 13.05 12.22 13.16 12.11 13.21 12.04 13.26 11.96 13.31 11.78 13.34 11.71 13.38 11.65 13.46 11.53 13.48 11.35 13.49 11.16 13.43 11.16 13.41 11.16 13.38 11.17 13.35 10.93 13.45 10.68 13.56 10.43 13.62 10.03 13.62 9.9 13.62 9.77 13.36 9.39 13.29 9 13.21 8.61 13.05 8.49 12.9 8.34 12.75 8.18 12.75 7.92 12.59 7.83 12.43 7.74 12.52 7.85 12.2 7.77 11.88 7.69 11.36 7.31 11.18 7.26 11 7.21 10.95 7.34 10.64 7.4 10.33 7.45 10.04 7.49 9.8 7.57 9.57 7.65 9.26 7.75 9.04 7.87 8.83 7.98 8.48 8.58 8.5 8.77 8.52 8.96 8.58 9.17 8.54 9.38 8.49 9.59 8.45 10.12 8.56 10.28 8.67 10.43 8.6 10.67 8.52 10.65 8.44 10.64 8.25 10.63 8.28 10.96 8.32 11.3 8.49 11.46 8.49 11.66 8.5 11.87 8.63 11.93 8.74 12.1 8.86 12.28 9.04 12.36 9.09 12.35 9.13 12.33 9.2 12.27 9.18 12.7 9.15 13.13 9.11 14.25 8.91 14.51 8.71 14.76 8.49 15.06 7.49 15.46 7.49 15.46 7.37 15.37 7.25 15.34 7.13 15.32 7.17 15.45 7.06 15.43 6.96 15.42 6.98 15.39 6.83 15.48 6.69 15.57 6.38 15.55 6.15 15.61 5.91 15.68 5.76 15.83 5.52 15.85 5.28 15.88 4.94 16.11 4.78 16.32 4.61 16.52 4.28 17.08 4.17 17.38 4.07 17.68 3.75 18.77 3.53 19.23 3.31 19.69 2.96 20.65 2.81 20.97 2.66 21.3 2.47 21.66 2.71 21.75 2.95 21.84 3.36 22.01 3.54 22.24 3.73 22.47 3.81 22.49 3.81 22.49 3.81 22.49 3.63 24.06 3.54 24.25 3.45 24.43 3.38 24.97 3.37 25.45 3.36 25.93 3.3 26.35 3.21 26.64 3.12 26.93 3.09 28.17 3.14 28.75 3.19 29.34 3.21 30.65 3.18 30.92 3.16 31.18 3.09 31.39 3.12 31.65 3.14 31.92 3.28 32.2 3.17 32.46 3.05 32.71 3.03 33.26 2.99 33.41 2.95 33.56 2.92 33.69 2.88 33.79 2.84 33.9 2.94 34.4 3.05 34.45 3.15 34.5 3.21 34.55 3.24 34.69 3.27 34.83 3.45 35.24 3.5 35.28 3.56 35.32 3.65 35.3 3.65 35.3 3.65 35.3 3.76 35.61 3.95 35.62 4.15 35.63 4.28 35.64 4.31 35.64 4.34 35.65 4.54 35.77 4.74 35.71 4.74 35.71 4.59 36.31 4.51 36.54 4.42 36.76 4.37 37 4.46 37.2 4.46 37.2 4.6 37.38 4.44 37.53 4.29 37.68 4.25 37.83 4.22 37.94 4.2 38.05 4.08 38.12 4.07 38.26 4.05 38.4 4.11 38.57 4.03 38.67 3.96 38.78 3.94 38.86 3.95 39 3.97 39.13 3.89 39.28 3.8 39.42 3.71 39.56 3.66 40.12 3.62 40.3 3.59 40.48 3.45 41.11 3.45 41.61 3.45 42.1 3.52 42.01 3.55 42.18 3.58 42.34 3.67 42.33 3.72 42.42 3.78 42.52 3.85 42.56 3.86 42.62 3.87 42.69 3.73 43.09 3.71 43.3 3.68 43.51 3.69 43.67 3.65 43.8 3.61 43.92 3.53 44.19 3.74 44.22 3.74 44.22 3.68 44.75 3.59 45.32 3.5 45.9 3.55 46.6 3.67 47.51 3.8 48.42 4.03 50.35 4.07 51.47 4.1 52.58 3.98 53.39 3.98 53.39 3.98 53.39 3.92 53.43 3.89 53.57 3.85 53.71 3.76 53.78 3.76 53.78 3.76 53.78 3.66 53.75 3.5 53.82 3.35 53.9 3.4 53.98 3.3 54.01 3.19 54.05 3.09 54 3.08 54.1 3.06 54.21 3.08 54.26 2.9 54.31 2.72 54.36 2.67 54.39 2.54 54.56 2.41 54.72 2.33 54.87 2.29 54.99 2.25 55.1 2.16 55.3 2.1 55.37 2.04 55.43 1.79 55.46 1.65 55.49 1.51 55.52 1.28 55.6 0.88 55.82 0.88 55.82 0.84 55.9 0.65 55.93 0.47 55.96 0.05 56.21-0 56.54-0.05 56.87 0.46 57.08 0.78 57.13 1.11 57.18 2.02 57.27 2.44 57.24 2.86 57.21 3.2 57.05 3.67 56.89 4.13 56.72 5.05 56.72 5.22 56.7 5.4 56.69 5.74 56.64 5.8 56.45 5.85 56.26 5.94 55.94 5.93 55.88 5.94 55.78 5.99 55.7 5.94 55.49 5.89 55.28 5.87 55.05 5.81 54.84 5.76 54.62 5.83 54.59 5.79 54.52 5.75 54.46 5.67 54.4 5.67 54.27 5.67 54.14 5.72 53.98 5.7 53.86 5.67 53.75 5.62 53.93 5.61 53.77 5.6 53.62 5.41 52.51 5.71 51.21 6.02 49.92 6.32 49.11 6.36 48.21 6.4 47.3 6.36 44.76 6.36 44.76 6.36 44.76 6.38 44.61 6.59 44.63 6.79 44.65 7.58 44.73 7.8 44.69 8.02 44.65 8.32 44.56 8.37 44.3 8.42 44.03 8.46 43.59 8.48 43.5 8.51 43.41 8.69 42.61 8.73 42.28 8.77 41.96 9.07 40.77 9.14 40.48 9.22 40.18 9.34 39.47 9.36 39.06 9.39 38.66 9.47 37.7 9.47 37.33 9.47 36.96 9.46 36.37 9.59 36.3 9.72 36.22 9.94 36.2 9.92 36.43 9.9 36.66 9.98 38.24 9.98 38.55 9.98 38.86 9.91 39.85 9.88 40.2 9.85 40.56 9.8 41.02 9.81 41.46 9.83 41.9 9.85 42.75 9.95 43.03 10.06 43.31 9.99 43.36 9.98 43.46 9.96 43.57 10.2 43.79 10.2 43.79 10.2 43.79 10.26 44.04 10.19 44.73 10.12 45.41 9.78 46.07 9.66 46.87 9.54 47.67 9.65 48.89 9.75 49.59 9.85 50.28 9.73 51.98 9.74 52.3 9.75 52.62 9.71 52.8 9.63 52.92 9.54 53.05 9.45 53.49 9.37 53.62 9.29 53.76 9.23 54 9.27 54.09 9.31 54.17 9.32 54.28 9.26 54.35 9.2 54.42 9.19 54.5 9.2 54.59 9.21 54.68 9.12 54.73 9.09 54.85 9.07 54.98 8.98 55.1 8.87 55.21 8.77 55.32 8.63 55.45 8.67 55.6 8.71 55.75 8.69 55.99 8.72 56.08 8.74 56.16 8.77 56.42 9.08 56.42 9.39 56.42 9.8 56.43 9.92 56.52 10.04 56.6 10.31 56.79 10.64 56.79 10.96 56.79 11.5 56.73 11.85 56.81 12.19 56.89 12.87 57.06 12.92 56.92 12.98 56.78 13.05 56.23 12.8 56.13 12.55 56.04 12.61 55.99 12.53 55.93 12.46 55.86 12.24 55.69 12.15 55.58 12.06 55.47 11.95 55.18 11.81 54.95 11.67 54.71 11.6 54.43 11.54 54.33 11.47 54.23 11.48 54.14 11.38 54.15 11.28 54.17 11.38 53.99 11.3 53.93 11.22 53.87 11.09 53.72 11.06 53.69 11.04 53.66 10.94 53.25 11.02 52.8 11.1 52.34 11.36 51.25 11.41 51.01 11.45 50.77 12.21 47.94 12.31 47.53 12.41 47.12 12.68 46.07 12.74 45.31 12.79 44.55 12.78 44.12 12.78 44.12 12.78 44.12 13.18 44.02 13.63 44.04 14.07 44.07 14.95 43.91 15.16 43.81 15.37 43.71 15.45 43.6 15.46 43.46 15.47 43.32 15.32 43.22 15.31 43.04 15.29 42.85 15.41 42.59 15.29 42.39 15.17 42.19 15.19 41.93 15.19 41.93 15.19 41.93 15.28 41.95 15.27 41.67 15.27 41.4 15.31 41.02 15.33 40.83 15.36 40.64 15.27 40.31 15.27 40.15 15.27 40 15.28 39.48 15.19 39.2 15.1 38.93 15.06 38.69 15.06 38.69 15.06 38.69 15.22 38.67 15.23 38.63 15.23 38.58 15.15 38.44 15.19 38.29 15.22 38.15 15.3 37.96 15.16 37.9 15.02 37.83 15.04 37.86 15.01 37.72 14.99 37.58 14.86 37.43 14.82 37.16 14.78 36.9 14.85 36.32 14.85 36.32 14.85 36.32 15.45 36.23 15.5 36.23 15.54 36.23 15.45 36.42 15.4 36.48 15.34 36.54 15.27 36.6 15.21 36.71 15.14 36.82 15.18 36.97 15.21 37.01 15.24 37.04 15.18 37.21 15.32 37.29 15.45 37.36 15.49 37.36 15.59 37.27 15.7 37.18 15.79 37.11 15.89 37.04 15.99 36.96 16.29 36.65 16.43 36.56 16.56 36.47 16.73 36.36 16.77 36.28 16.81 36.2 16.92 35.54 17.01 35.4 17.1 35.26 17.27 35.07 17.24 34.8ZM 5.63 27.71C 5.65 28.17 5.65 29.13 5.62 29.46 5.58 29.78 5.51 30.46 5.5 30.6 5.49 30.73 5.51 31.19 5.44 31.35 5.36 31.51 5.52 31.51 5.52 31.51 5.52 31.51 5.49 31.64 5.49 31.77 5.5 31.9 5.43 32.15 5.31 32.28 5.2 32.41 5.17 32.8 5.17 32.8 5.13 32.43 4.78 32.27 4.66 31.94 4.54 31.62 4.51 31.19 4.6 30.42 4.69 29.65 4.85 28.76 5.06 28.04 5.27 27.33 5.35 26.34 5.4 26.04 5.45 25.73 5.37 25.48 5.51 25.43 5.65 25.38 5.59 25.73 5.63 26.09 5.67 26.44 5.62 27.24 5.63 27.71ZM 15.63 33.04C 15.47 33.26 15.45 33.46 15.41 33.88 15.36 34.31 15.44 34.58 15.41 34.78 15.37 34.98 15.29 35.24 15.27 35.39 15.24 35.54 15.19 35.77 15.32 35.89 15.32 35.89 14.86 35.96 14.8 36.08 14.79 36.07 14.72 36.09 14.72 35.87 14.72 35.65 14.62 34.97 14.61 34.72 14.6 34.46 14.54 33.58 14.52 33.33 14.5 33.08 14.37 32.87 14.52 32.79 14.67 32.71 14.69 32.43 14.64 32.19 14.59 31.95 14.54 31.67 14.6 31.66 14.65 31.64 14.7 31.61 14.63 31.37 14.56 31.13 14.53 31.02 14.57 30.83 14.62 30.64 14.58 30.32 14.59 30.15 14.6 29.99 14.63 29.72 14.7 29.64 14.76 29.57 14.78 29.43 14.78 29.43 14.78 29.43 14.85 29.32 14.93 29.87 15.01 30.42 15.18 30.74 15.33 31.1 15.49 31.46 15.76 32.02 15.76 32.32 15.76 32.62 15.79 32.81 15.63 33.04ZM 16.28 34.97C 16.28 35.03 16.26 35.12 16.23 35.2 16.19 35.28 15.96 35.49 15.96 35.49 15.96 35.49 15.94 35.23 15.96 35.01 15.97 34.8 16.02 34.72 16.07 34.71 16.12 34.69 16.32 34.71 16.31 34.8 16.3 34.88 16.28 34.92 16.28 34.97Z" fill="rgb(105,197,185)"/><path fillRule="evenodd" d="M 43.47 55.46C 42.85 55.3 42.72 55.22 42.27 55.11 41.82 55.01 40.64 54.25 40.64 54.25 40.64 54.25 40.08 53.75 40.08 53.75 40.08 53.75 40.1 53.58 40.03 53.51 39.97 53.44 39.72 53.21 39.65 53.11 39.57 53.02 39.71 52.94 39.77 52.88 39.82 52.83 39.75 52.4 39.66 52.04 39.57 51.67 39.19 50.96 39.05 50.81 38.91 50.66 38.9 50.22 38.92 50.1 38.94 49.97 38.87 49.25 38.77 48.87 38.67 48.49 38.78 47.96 38.65 47.49 38.51 47.02 38.38 45.93 38.38 45.85 38.37 45.77 38.37 45.77 38.37 45.77 38.37 45.77 38.53 45.7 38.47 45.58 38.41 45.47 38.29 45.36 38.31 45.21 38.33 45.06 38.26 44.98 38.37 44.89 38.48 44.81 38.52 44.68 38.46 44.58 38.41 44.49 38.42 44.3 38.49 44.26 38.55 44.21 38.7 44.3 38.66 44.05 38.63 43.8 38.72 43.58 38.76 43.42 38.81 43.26 38.91 42.68 38.82 42.31 38.73 41.95 38.63 41.61 38.5 41.45 38.37 41.3 38.24 41.38 38.21 41.18 38.18 40.98 38.16 40.81 38.05 40.7 37.94 40.59 38.04 40.53 37.98 40.33 37.92 40.14 37.87 40.13 37.81 39.97 37.75 39.81 37.8 39.65 37.72 39.5 37.65 39.35 37.54 39.32 37.53 39.21 37.53 39.1 37.58 38.93 37.51 38.85 37.44 38.77 37.44 38.81 37.37 38.52 37.3 38.23 36.75 36.21 36.73 36.16 36.7 36.12 36.71 35.95 36.67 35.92 36.62 35.88 36.58 35.85 36.6 35.75 36.62 35.65 36.58 35.45 36.55 35.41 36.52 35.36 36.34 35.07 36.27 34.91 36.21 34.74 36.14 34.58 36.19 34.54 36.19 34.54 36.84 34.51 36.89 34.43 36.95 34.35 36.93 34.06 36.93 34.06 36.93 34.06 37.19 33.99 37.16 33.88 37.12 33.76 37.08 33.26 37.03 32.95 36.98 32.65 36.93 32.27 36.88 32.14 36.82 32.01 36.79 31.98 36.78 31.71 36.77 31.44 36.73 30.6 36.71 30.27 36.69 29.95 36.71 29 36.71 28.52 36.71 28.03 36.63 27.3 36.58 27.02 36.53 26.74 36.53 26.22 36.49 25.84 36.44 25.46 36.39 25.25 36.42 24.94 36.45 24.63 36.47 24.35 36.62 23.85 36.76 23.35 37.03 23.18 36.99 22.45 36.96 21.73 36.7 21.32 36.62 21.24 36.53 21.15 36.28 20.68 36.13 20.5 35.98 20.32 35.61 19.7 35.49 19.55 35.38 19.4 35.15 18.81 35.05 18.7 34.95 18.58 34.78 18.33 34.78 18.33 34.78 18.33 34.72 18.13 34.66 17.89 34.59 17.66 34.56 17.38 34.54 17.26 34.51 17.14 34.55 17.01 34.55 16.85 34.55 16.68 34.49 16.5 34.41 16.39 34.41 16.39 34.31 16.33 34.14 16.3 33.97 16.27 33.32 15.84 33.32 15.84 33.32 15.84 33.27 15.85 33.32 15.63 33.38 15.4 33.4 15.3 33.48 15.27 33.55 15.25 33.72 15.27 33.99 15.28 34.26 15.28 34.61 15.2 34.73 14.99 34.85 14.79 34.86 14.72 34.86 14.44 34.86 14.16 34.92 13.71 34.98 13.44 35.03 13.17 35.15 12.92 35.07 12.54 35 12.16 34.86 11.94 34.85 11.91 34.83 11.88 34.84 11.7 34.83 11.68 34.83 11.66 34.79 11.59 34.82 11.52 34.85 11.44 34.86 11.35 34.91 11.29 34.96 11.24 34.97 11.05 34.97 10.97 34.97 10.89 34.91 10.71 34.88 10.63 34.85 10.55 34.87 10.47 34.85 10.05 34.83 9.64 34.6 8.74 34.45 8.64 34.3 8.55 33.61 8.09 33.37 7.96 33.13 7.84 32.87 7.67 32.6 7.63 32.34 7.6 31.44 7.75 31.17 7.86 30.9 7.96 30.04 8.36 29.92 8.47 29.8 8.58 29.07 8.89 28.93 9.72 28.79 10.54 28.72 11.06 28.77 11.55 28.81 12.05 28.85 12.4 28.98 12.65 29.12 12.89 29.21 12.92 29.2 13.02 29.19 13.12 29.09 13.41 28.92 13.66 28.76 13.91 28.61 14.11 28.31 14.74 28 15.37 28.04 15.63 27.82 16.39 27.6 17.14 27.51 18 27.43 18.42 27.35 18.84 27.37 18.99 27.39 19.07 27.39 19.07 27.39 18.91 27.47 18.76 27.55 18.62 27.51 18.91 27.48 19.09 27.45 19.27 27.49 19.26 27.38 19.39 27.27 19.52 27.04 19.75 27 20.13 26.95 20.52 26.85 21.22 26.9 21.53 26.95 21.83 26.98 22.02 26.98 22.02 26.98 22.02 26.91 22.38 26.82 22.49 26.74 22.6 26.77 22.93 26.7 23.03 26.64 23.13 26.51 23.3 26.41 23.6 26.31 23.9 25.97 24.51 25.87 24.79 25.76 25.06 25.74 24.96 25.52 25.4 25.3 25.85 25.35 25.76 25.15 26.28 24.96 26.8 24.85 26.93 24.94 27.37 25.03 27.82 25.08 27.86 25.27 28.46 25.46 29.05 25.49 29.01 25.44 29.32 25.38 29.64 25.51 29.82 25.57 30.03 25.62 30.24 25.55 30.52 25.58 30.76 25.61 31 25.84 31.75 25.99 31.93 26.14 32.12 26.47 32.56 26.47 32.56 26.47 32.56 26.53 32.65 26.49 32.79 26.45 32.94 26.43 33.07 26.51 33.43 26.59 33.79 26.71 33.97 26.83 34.08 26.95 34.18 27 34.14 27.05 34.25 27.09 34.35 27.13 34.44 27.13 34.46 27.13 34.49 27.13 34.52 27.13 34.52 27.13 34.52 26.57 34.81 26.65 35.12 26.74 35.44 27.05 35.13 27.09 35.07 27.13 35.02 27.27 34.95 27.27 34.95 27.27 34.95 27.33 35.09 27.35 35.14 27.38 35.19 27.26 35.19 27.1 35.45 26.94 35.71 26.93 35.81 27.05 35.93 27.05 35.93 26.86 36.12 26.98 36.28 27.1 36.44 27.73 36.1 27.73 36.1 27.73 36.1 27.83 36.52 27.88 36.69 27.93 36.87 27.99 36.98 28.05 37.08 28.1 37.19 27.96 37.25 28.04 37.37 28.11 37.49 28.19 37.57 28.15 37.65 28.11 37.72 28.11 37.84 28.16 37.91 28.2 37.98 28.18 38.04 28.15 38.14 28.12 38.24 28.17 38.47 28.16 38.77 28.14 39.07 28.04 39.34 28.1 39.97 28.16 40.61 28.08 41.68 28.04 42.04 28 42.4 27.87 42.35 27.86 42.62 27.85 42.89 27.94 42.88 27.85 43.04 27.77 43.2 27.74 43.08 27.76 43.46 27.77 43.85 27.66 43.89 27.6 44.11 27.55 44.32 27.58 44.59 27.48 44.84 27.37 45.09 27.16 45.8 27.13 46.45 27.1 47.09 27.02 48.1 27.05 48.45 27.07 48.81 27.12 49.63 27.17 49.92 27.21 50.2 27.23 50.86 27.22 51.11 27.2 51.37 27.17 52.24 27.2 52.53 27.23 52.81 27.35 53.13 27.47 53.24 27.58 53.36 27.65 53.36 27.65 53.47 27.64 53.57 27.59 53.85 27.57 54.02 27.54 54.19 27.45 54.49 27.38 54.76 27.31 55.02 27.27 55.54 27.36 55.64 27.46 55.74 27.54 55.95 27.89 56.09 28.23 56.23 28.58 56.29 28.88 56.46 29.19 56.62 30.31 57.47 30.68 57.61 31.04 57.75 32.68 58.29 33.61 57.8 34.55 57.31 34.05 56.79 33.67 56.67 33.29 56.55 32.36 55.81 32.17 55.73 31.99 55.65 31.06 54.81 31.04 54.79 31.03 54.78 30.56 54.17 30.56 54.17 30.56 54.17 30.67 54.13 30.64 54.08 30.61 54.03 30.45 53.68 30.4 53.5 30.36 53.33 30.36 53.09 30.39 53 30.42 52.92 30.46 52.68 30.35 52.39 30.24 52.1 30.1 51.9 30.1 51.67 30.1 51.44 30.24 50.91 30.26 50.32 30.28 49.72 30.13 49.8 30.12 49.05 30.11 48.3 30.2 47.32 30.26 46.94 30.31 46.57 30.44 46.7 30.49 46.38 30.54 46.07 30.47 46.08 30.61 45.88 30.75 45.68 30.84 45.54 30.99 45.36 31.14 45.18 31.29 45.1 31.29 44.95 31.28 44.81 31.17 44.84 31.35 44.66 31.52 44.48 31.69 44.03 31.77 43.68 31.86 43.33 31.88 43.27 31.85 43.14 31.82 43.01 31.95 42.94 32.02 42.7 32.09 42.47 32.15 42.25 32.31 41.72 32.48 41.19 33.05 40.03 33.05 40.03 33.05 40.03 33.56 40.77 33.66 40.93 33.76 41.09 33.93 41.32 34.05 41.56 34.16 41.81 34.32 42.01 34.5 42.39 34.69 42.77 34.79 42.98 34.86 43.09 34.94 43.19 35.07 43.04 35.07 43.23 35.07 43.43 35.02 43.86 35.13 43.98 35.23 44.09 35.36 44.19 35.31 44.27 35.25 44.35 35.21 44.29 35.24 44.56 35.26 44.83 35.12 45.07 35.18 45.19 35.24 45.32 35.17 45.4 35.19 45.55 35.2 45.7 35.18 46.21 35.25 46.71 35.32 47.22 35.42 47.78 35.5 48.25 35.57 48.73 35.61 49.39 35.75 49.86 35.9 50.34 36.05 50.51 36.12 50.87 36.2 51.24 36.43 51.63 36.49 51.81 36.55 51.98 36.5 52.28 36.5 52.47 36.5 52.66 36.54 52.94 36.64 53.19 36.74 53.45 36.64 53.43 36.79 53.49 36.94 53.55 37.06 53.69 37.01 53.81 36.97 53.93 36.93 54.25 36.88 54.41 36.83 54.57 36.6 55.46 36.61 55.6 36.62 55.75 36.46 56.58 37.53 56.47 38.6 56.36 39.06 56.05 39.66 56.19 40.26 56.32 41.14 56.65 41.87 56.64 42.6 56.63 43.69 56.75 43.94 56.42 44.19 56.08 44.08 55.62 43.47 55.46ZM 28.64 29.49C 28.47 30.07 28.37 30.43 28.29 30.83 28.22 31.23 28.11 31.29 28.11 31.29 28.13 31.2 27.91 30.85 27.91 30.85 27.91 30.85 27.93 30.84 27.93 30.84 27.93 30.84 28.13 30.76 28.18 30.7 28.22 30.63 28.19 30.57 28.13 30.47 28.06 30.37 28.06 30.13 28.05 30.05 28.04 29.96 27.99 29.68 27.95 29.52 27.91 29.36 27.97 29.45 28.06 29.13 28.16 28.81 27.93 28.64 27.9 28.46 27.88 28.27 27.94 28.31 28.01 28.1 28.07 27.89 28.06 27.82 28.08 27.53 28.1 27.24 27.99 26.99 27.93 26.86 27.86 26.72 27.92 26.71 27.93 26.66 27.93 26.61 28.01 26.62 28.09 26.6 28.17 26.58 28.22 26.53 28.34 26.36 28.45 26.19 28.65 25.93 28.65 25.93 28.65 25.93 28.85 26.18 28.88 26.45 28.9 26.72 28.98 26.98 29.04 27.36 29.1 27.75 29.19 27.92 29.19 27.92 29.19 27.92 28.82 28.92 28.64 29.49Z" fill="rgb(105,197,186)"/><path fillRule="evenodd" d="M 110.36 23.73C 110.36 23.73 106.11 23.73 106.11 23.73 105.76 23.73 105.47 23.45 105.47 23.1 105.47 23.1 105.47 16.24 105.47 16.24 105.47 15.89 105.76 15.6 106.11 15.6 106.11 15.6 110.36 15.6 110.36 15.6 110.71 15.6 111 15.89 111 16.24 111 16.24 111 23.1 111 23.1 111 23.45 110.71 23.73 110.36 23.73ZM 100.77 56.6C 100.77 56.95 100.48 57.24 100.13 57.24 100.13 57.24 93.32 57.24 93.32 57.24 92.96 57.24 92.68 56.95 92.68 56.6 92.68 56.6 92.68 52.66 92.68 52.66 92.68 52.66 66.48 52.66 66.48 52.66 66.48 52.66 66.48 56.6 66.48 56.6 66.48 56.95 66.19 57.24 65.84 57.24 65.84 57.24 59.02 57.24 59.02 57.24 58.67 57.24 58.38 56.95 58.38 56.6 58.38 56.6 58.38 52.66 58.38 52.66 58.38 52.66 55.21 52.66 55.21 52.66 55.21 52.66 55.21 49.65 55.21 49.65 55.21 49.65 103.94 49.65 103.94 49.65 103.94 49.65 103.94 52.66 103.94 52.66 103.94 52.66 100.77 52.66 100.77 52.66 100.77 52.66 100.77 56.6 100.77 56.6ZM 55.21 6.65C 55.21 6.65 55.21 6.65 55.21 6.65 55.21 6.64 55.21 6.62 55.21 6.6 55.21 2.95 66.12-0 79.58-0 93.03-0 103.94 2.95 103.94 6.6 103.94 6.62 103.94 6.64 103.94 6.65 103.94 6.65 103.94 6.65 103.94 6.65 103.94 6.65 103.94 47.75 103.94 47.75 103.94 47.75 55.21 47.75 55.21 47.75 55.21 47.75 55.21 6.65 55.21 6.65ZM 62.97 5.79C 62.21 5.79 61.59 6.41 61.59 7.17 61.59 7.92 62.21 8.54 62.97 8.54 63.73 8.54 64.35 7.92 64.35 7.17 64.35 6.41 63.73 5.79 62.97 5.79ZM 92.3 4.24C 92.3 3.89 92.02 3.6 91.67 3.6 91.67 3.6 67.49 3.6 67.49 3.6 67.13 3.6 66.85 3.89 66.85 4.24 66.85 4.24 66.85 10.1 66.85 10.1 66.85 10.45 67.13 10.73 67.49 10.73 67.49 10.73 91.67 10.73 91.67 10.73 92.02 10.73 92.3 10.45 92.3 10.1 92.3 10.1 92.3 4.24 92.3 4.24ZM 95.62 5.79C 94.85 5.79 94.23 6.41 94.23 7.17 94.23 7.92 94.85 8.54 95.62 8.54 96.38 8.54 97 7.92 97 7.17 97 6.41 96.38 5.79 95.62 5.79ZM 100.43 13.19C 100.43 13.19 81.13 13.19 81.13 13.19 81.13 13.19 81.13 31.06 81.13 31.06 81.13 31.06 86.12 31.06 86.12 31.06 86.12 31.06 87.21 31.06 87.21 31.06 87.08 31.05 86.95 31.03 86.82 30.99 86.12 30.73 85.57 30.49 85.11 30.23 84.66 29.96 84.28 29.69 83.98 29.27 83.8 29.02 83.65 28.69 83.62 28.33 83.62 28.33 83.62 28.32 83.62 28.32 83.62 28.29 83.61 28.26 83.61 28.23 83.61 28.23 83.61 28.23 83.61 28.23 83.61 28.22 83.61 28.21 83.61 28.2 83.61 28.17 83.61 28.17 83.61 28.17 83.61 28.15 83.61 28.13 83.62 28.11 83.62 28.11 83.62 28.1 83.62 28.09 83.63 27.82 83.7 27.56 83.81 27.35 83.93 27.12 84.08 26.94 84.23 26.8 84.27 26.76 84.32 26.72 84.36 26.68 84.62 26.47 84.88 26.32 85.14 26.2 85.75 25.91 86.38 25.75 86.91 25.64 87.28 25.57 87.54 25.53 87.85 25.53 87.9 25.53 87.94 25.53 87.99 25.53 87.99 25.53 94.12 25.53 94.12 25.53 94.16 25.53 94.21 25.53 94.25 25.53 94.46 25.53 94.63 25.55 94.84 25.58 95.05 25.61 95.29 25.66 95.54 25.71 96.03 25.84 96.59 26 97.12 26.27 97.33 26.39 97.54 26.51 97.75 26.68 97.89 26.81 98.03 26.95 98.16 27.14 98.33 27.38 98.48 27.72 98.49 28.1 98.49 28.1 98.49 28.1 98.49 28.1 98.49 28.13 98.49 28.15 98.49 28.17 98.49 28.17 98.49 28.17 98.49 28.17 98.49 28.18 98.49 28.19 98.49 28.2 98.49 28.21 98.49 28.22 98.49 28.23 98.49 28.23 98.49 28.23 98.49 28.23 98.49 28.25 98.49 28.26 98.49 28.28 98.49 28.29 98.49 28.3 98.49 28.32 98.45 28.68 98.31 29.02 98.12 29.27 97.82 29.69 97.45 29.96 96.99 30.23 96.54 30.49 95.98 30.73 95.28 30.99 95.16 31.03 95.03 31.05 94.9 31.06 94.9 31.06 95.98 31.06 95.98 31.06 95.98 31.06 100.43 31.06 100.43 31.06 100.43 31.06 100.43 13.19 100.43 13.19ZM 96.72 43.16C 98.75 43.16 100.39 41.53 100.39 39.51 100.39 37.5 98.75 35.87 96.72 35.87 94.7 35.87 93.05 37.5 93.05 39.51 93.05 41.53 94.7 43.16 96.72 43.16ZM 88.66 29.01C 89.22 28.3 90.08 27.84 91.05 27.84 92.02 27.84 92.89 28.3 93.44 29.01 93.22 29.4 93.17 29.88 93.33 30.33 93.44 30.63 93.64 30.88 93.88 31.06 93.88 31.06 94.81 31.06 94.81 31.06 94.3 31.05 93.82 30.73 93.64 30.22 93.39 29.56 93.74 28.82 94.41 28.58 94.72 28.47 94.98 28.37 95.2 28.27 95.05 28.23 94.9 28.19 94.76 28.16 94.73 28.15 94.7 28.15 94.67 28.14 94.55 28.19 94.43 28.24 94.3 28.28 94.19 28.32 94.1 28.37 94.01 28.42 93.3 27.58 92.24 27.04 91.05 27.04 89.86 27.04 88.8 27.58 88.1 28.42 88.01 28.37 87.91 28.32 87.81 28.28 87.67 28.24 87.55 28.19 87.43 28.14 87.38 28.15 87.32 28.17 87.26 28.18 87.15 28.2 87.03 28.23 86.9 28.27 87.12 28.37 87.39 28.47 87.7 28.58 88.37 28.82 88.71 29.56 88.47 30.22 88.28 30.73 87.81 31.05 87.29 31.06 87.29 31.06 88.22 31.06 88.22 31.06 88.47 30.88 88.66 30.63 88.77 30.33 88.94 29.88 88.88 29.4 88.66 29.01ZM 70.64 45.37C 70.64 45.37 88.51 45.37 88.51 45.37 88.51 45.37 88.51 43.47 88.51 43.47 88.51 43.47 70.64 43.47 70.64 43.47 70.64 43.47 70.64 45.37 70.64 45.37ZM 70.64 41.26C 70.64 41.26 88.51 41.26 88.51 41.26 88.51 41.26 88.51 39.36 88.51 39.36 88.51 39.36 70.64 39.36 70.64 39.36 70.64 39.36 70.64 41.26 70.64 41.26ZM 70.64 37.14C 70.64 37.14 88.51 37.14 88.51 37.14 88.51 37.14 88.51 35.24 88.51 35.24 88.51 35.24 70.64 35.24 70.64 35.24 70.64 35.24 70.64 37.14 70.64 37.14ZM 62.43 43.16C 64.46 43.16 66.1 41.53 66.1 39.51 66.1 37.5 64.46 35.87 62.43 35.87 60.4 35.87 58.76 37.5 58.76 39.51 58.76 41.53 60.4 43.16 62.43 43.16ZM 58.72 31.06C 58.72 31.06 78.02 31.06 78.02 31.06 78.02 31.06 78.02 13.19 78.02 13.19 78.02 13.19 58.72 13.19 58.72 13.19 58.72 13.19 58.72 31.06 58.72 31.06ZM 91.87 24.4C 89.93 24.85 87.98 23.65 87.53 21.72 87.4 21.18 87.41 20.63 87.52 20.13 87.52 20.13 85.9 20.13 85.9 20.13 85.9 20.13 87.51 18.59 87.51 18.59 87.51 18.59 94.58 18.59 94.58 18.59 94.58 18.59 94.58 20.09 94.58 20.09 95.03 22.02 93.82 23.95 91.87 24.4ZM 86.32 16.26C 86.32 16.26 94.58 17.09 94.58 17.09 94.58 17.09 94.58 18.27 94.58 18.27 94.58 18.27 87.55 18.27 87.55 18.27 87.55 18.27 86.32 16.26 86.32 16.26ZM 53.04 23.73C 53.04 23.73 48.79 23.73 48.79 23.73 48.44 23.73 48.15 23.45 48.15 23.1 48.15 23.1 48.15 16.24 48.15 16.24 48.15 15.89 48.44 15.6 48.79 15.6 48.79 15.6 53.04 15.6 53.04 15.6 53.4 15.6 53.68 15.89 53.68 16.24 53.68 16.24 53.68 23.1 53.68 23.1 53.68 23.45 53.4 23.73 53.04 23.73Z" fill="rgb(49,179,165)"/></svg>