<?xml version="1.0" encoding="utf-8"?>
<svg xmlns="http://www.w3.org/2000/svg"
	xmlns:xlink="http://www.w3.org/1999/xlink"
	width="108px" height="56px" viewBox="0 0 108 56">
<g><path fillRule="evenodd" d="M 71.6 47.46C 71.6 47.46 72.46 49.85 72.87 50.24 72.87 50.24 74.24 50.64 74.33 52.37 74.33 52.37 75.88 55.03 77.89 56 77.89 56 78.85 55.16 78.98 54.54 78.98 54.54 78.48 52.77 78.12 52.41 78.12 52.41 78.98 51.57 79.17 51.04 79.17 51.04 79.67 50.55 80.49 50.29 80.49 50.29 82.86 48.56 84.09 46.7 84.09 46.7 86.01 44.27 87.15 43.38 87.15 43.38 90.57 39.27 91.07 38.56 91.07 38.56 92.85 36.3 92.85 36.3 92.85 36.3 93.95 37.54 94.36 39 94.36 39 94.64 40.89 95.17 41.93 95.2 41.99 95.24 42.04 95.27 42.1 95.86 43.07 95.77 43.03 96.23 44.31 96.23 44.31 97.1 45.51 97.55 45.91 98.01 46.3 97.6 46.3 97.51 46.97 97.41 47.63 96.91 47.9 97.28 48.25 97.64 48.61 97.6 49.14 97.6 49.27 97.6 49.4 97.6 50.2 97.6 50.2 97.6 50.2 97.82 53.25 97.82 53.25 97.82 53.25 100.06 53.43 100.74 53.43 100.88 53.43 101.43 52.55 102.48 53.48 102.48 53.48 106.77 53.43 108 52.63 108 52.63 107.91 50.78 105.03 50.82 105.03 50.82 104.17 49 104.17 49 104.17 49 104.67 47.81 103.76 47.15 102.84 46.48 102.52 45.64 102.52 44.93 102.52 44.22 101.66 39.93 101.66 39.4 101.66 38.87 101.84 38.16 101.47 37.01 101.11 35.86 100.79 34.48 100.15 33.64 99.51 32.8 99.33 32.8 99.1 32.4 98.87 32.01 98.6 30.68 98.14 30.55 97.69 30.41 97.64 29.93 97.51 29.48 97.37 29.04 96.96 27.98 96.96 27.98 96.96 27.98 96.91 25.81 97.05 25.06 97.19 24.3 97.73 22.49 97.73 22.49 97.73 22.49 99.56 23.29 100.06 23.37 100.56 23.46 101.75 23.29 102.11 23.73 102.11 23.73 102.39 24.04 102.71 23.64 103.03 23.24 102.89 23.68 102.89 23.68 102.89 23.68 103.53 22.62 103.53 22.27 103.53 22.27 103.89 21.96 103.94 21.65 103.98 21.34 103.85 20.54 102.52 20.58 102.52 20.58 100.52 20.67 99.83 21.12 99.83 21.12 99.38 21.25 99.15 20.94 99.15 20.94 98.05 20.05 98.05 20.05 98.05 20.05 99.01 15.76 97.37 12.62 97.37 12.62 96.84 11.3 95.53 10.15 95.53 10.15 95.57 9.92 95.57 9.92 95.57 9.92 97.6 10.5 98 10.07 98 10.07 98.12 9.57 98.08 9.3 98.04 9.03 98.28 8.84 98.4 8.84 98.52 8.84 98.32 8.49 98.08 8.41 98.08 8.41 98.6 7.95 98.76 7.91 98.76 7.91 98.64 7.45 98.64 7.45 98.64 7.45 99.2 6.99 99.2 6.99 99.2 6.99 99.24 6.68 99.04 6.49 99.04 6.49 98.48 5.68 98.96 5.33 98.96 5.33 99.32 3.91 98.8 2.98 98.8 2.98 99.16 2.4 98.96 2.17 98.76 1.94 98.92 1.71 98.32 1.36 97.72 1.02 97.48 1.25 97.04 0.9 96.6 0.55 95.73 0.78 95.29 0.28 94.85-0.22 93.85 0.05 92.17 0.44 90.5 0.82 89.62 2.9 89.62 3.87 89.62 4.83 91.13 8.22 91.61 8.61 91.61 8.61 91.89 8.57 91.89 8.57 91.89 8.57 91.73 9.26 91.73 9.26 91.73 9.26 89.11 9.74 88.98 10.14 88.84 10.54 86.19 10.8 86.06 11.2 86.06 11.2 83.78 14.7 83.91 16.16 83.91 16.16 84.14 19.61 84.14 21.21 84.14 21.21 84.37 25.37 88.06 26.12 88.06 26.12 87.56 29.13 86.97 32.49 86.97 32.49 86.42 35.77 85.69 36.79 85.69 36.79 83.27 38.34 82.54 39.09 81.81 39.84 81.04 40.73 80.31 41.39 79.58 42.05 78.12 43.21 77.39 44.09 76.66 44.98 75.84 45.82 75.52 45.91 75.2 45.99 71.96 47.01 71.6 47.46Z" fill="rgb(147,212,204)"/><path fillRule="evenodd" d="M 41.5 34.24C 41.5 34.24 24.85 17.7 24.85 17.7 24.26 17.12 23.3 17.12 22.71 17.7 22.71 17.7 6 34.29 6 34.29 5.41 34.88 4.91 35.41 4.84 35.48 4.77 35.55 4.75 36.28 4.75 37.1 4.75 37.1 4.75 51.97 4.75 51.97 4.75 52.79 5.36 53.52 6.19 53.52 6.19 53.52 15.9 53.52 15.9 53.52 16.73 53.52 17.39 52.79 17.39 51.97 17.39 51.97 17.39 38.79 17.39 38.79 17.39 37.96 18.09 37.4 18.92 37.4 18.92 37.4 28.64 37.4 28.64 37.4 29.47 37.4 30.17 37.96 30.17 38.79 30.17 38.79 30.17 51.97 30.17 51.97 30.17 52.79 30.82 53.52 31.65 53.52 31.65 53.52 41.37 53.52 41.37 53.52 42.2 53.52 42.81 52.79 42.81 51.97 42.81 51.97 42.81 37.1 42.81 37.1 42.81 36.28 42.77 35.54 42.69 35.45 42.6 35.37 42.09 34.82 41.5 34.24ZM 33.66 12.25C 33.66 12.25 38.94 17.57 38.94 17.57 39.53 18.15 39.93 17.95 39.93 17.13 39.93 17.13 39.93 8.79 39.93 8.79 39.93 7.96 39.39 7.17 38.56 7.17 38.56 7.17 34.09 7.17 34.09 7.17 33.02 7.17 32.61 7.59 32.61 8.79 32.61 8.79 32.61 9.69 32.61 9.69 32.61 11.27 32.66 11.27 33.66 12.25ZM 47.26 28.95C 47.26 28.95 24.85 6.66 24.85 6.66 24.26 6.08 23.3 6.08 22.71 6.66 22.71 6.66 0.44 28.77 0.44 28.77-0.15 29.35-0.15 30.31 0.44 30.89 0.44 30.89 2.28 32.72 2.28 32.72 2.87 33.3 3.83 33.3 4.41 32.72 4.41 32.72 22.71 14.55 22.71 14.55 23.3 13.96 24.26 13.96 24.85 14.55 24.85 14.55 43.29 32.9 43.29 32.9 43.87 33.48 44.83 33.48 45.42 32.9 45.42 32.9 47.26 31.07 47.26 31.07 47.85 30.49 47.85 29.53 47.26 28.95Z" fill="rgb(49,179,165)"/></g></svg>